<?xml version="1.0" encoding="UTF-8" standalone="no"?>
<svg
   version="1.1"
   id="svg555"
   sodipodi:docname="iw.svg"
   inkscape:version="1.2.2 (b0a8486541, 2022-12-01)"
   xmlns:inkscape="http://www.inkscape.org/namespaces/inkscape"
   xmlns:sodipodi="http://sodipodi.sourceforge.net/DTD/sodipodi-0.dtd"
   xmlns="http://www.w3.org/2000/svg"
   xmlns:svg="http://www.w3.org/2000/svg">
  <defs
     id="defs559" />
  <sodipodi:namedview
     id="namedview557"
     pagecolor="#ffffff"
     bordercolor="#000000"
     borderopacity="0.25"
     inkscape:showpageshadow="2"
     inkscape:pageopacity="0.0"
     inkscape:pagecheckerboard="0"
     inkscape:deskcolor="#d1d1d1"
     inkscape:document-units="pt"
     showgrid="false"
     inkscape:zoom="1.77"
     inkscape:cx="18.079096"
     inkscape:cy="66.666667"
     inkscape:window-width="1920"
     inkscape:window-height="1137"
     inkscape:window-x="0"
     inkscape:window-y="27"
     inkscape:window-maximized="1"
     inkscape:current-layer="svg555" />
  <g
     id="g355"
     transform="matrix(1.3752233,0,0,1.3752233,-24.236055,-19.046843)"
     style="stroke-width:0.545366">
    <path
       d="m 19.6,78.6 c 0.2,0 0.3,0 0.5,-0.1 l 14.7,-3.4 c 0.4,-0.1 0.7,-0.3 1,-0.5 L 80.5,29.9 c 2.6,-2.6 2.6,-6.9 0,-9.5 l -4.6,-4.6 c -2.6,-2.6 -6.9,-2.6 -9.5,0 L 21.6,60.4 c -0.3,0.3 -0.5,0.6 -0.5,1 l -3.4,14.8 c -0.2,0.7 0,1.4 0.5,1.9 0.4,0.3 0.9,0.5 1.4,0.5 z M 69.1,18.5 c 1.1,-1.1 2.8,-1.1 3.9,0 l 4.6,4.6 c 1.1,1.1 1.1,2.8 0,3.9 l -3,3 -8.5,-8.5 z m -5.8,5.9 8.5,8.5 -1.4,1.4 -8.5,-8.5 z m -4.3,4.2 8.5,8.5 -32,32 L 27,60.6 Z M 24.6,63.8 32.4,71.6 22.3,74 Z"
       id="path353"
       style="stroke-width:0.545366" />
  </g>
  <path
     d="m 55.542825,77.707057 a 22.292946,22.292946 0 0 1 6.534616,-15.758326 l -4.858002,-4.858002 a 0.9799607,0.9799607 0 0 1 0.69201,-1.676616 h 12.957773 a 1.393309,1.393309 0 0 1 1.39331,1.39331 v 12.957773 a 0.9799607,0.9799607 0 0 1 -1.676618,0.69201 L 66.015862,65.887152 A 16.719709,16.719709 0 0 0 77.835766,94.426767 V 100 A 22.316168,22.316168 0 0 1 55.542825,77.707057 Z M 77.835766,55.414113 v 5.573235 a 16.719709,16.719709 0 0 1 11.819906,28.539615 l -4.52361,-4.523611 a 1.0078268,1.0078268 0 0 0 -1.723058,0.715233 V 98.606693 A 1.393309,1.393309 0 0 0 84.802312,100 h 12.88811 a 1.0078268,1.0078268 0 0 0 0.715233,-1.723055 L 93.594093,93.465383 A 22.292946,22.292946 0 0 0 77.835766,55.414113 Z"
     id="path1700"
     style="stroke-width:0.750002" />
</svg>
